<?xml version="1.0" encoding="utf-8"?>
<!-- Generator: Adobe Illustrator 25.1.0, SVG Export Plug-In . SVG Version: 6.00 Build 0)  -->
<svg version="1.1" id="Layer_1" xmlns="http://www.w3.org/2000/svg" xmlns:xlink="http://www.w3.org/1999/xlink" x="0px" y="0px"
	 viewBox="0 0 100 100" style="enable-background:new 0 0 100 100;" xml:space="preserve">
<style type="text/css">
	.st0{fill:#010101;}
	.st1{font-family:'NexaBold';}
	.st2{font-size:7.7635px;}
	.st3{font-size:5.875px;}
	.st4{letter-spacing:1;}
</style>
<g>
	<path id="XMLID_3252_" class="st0" d="M7.45,77.91h89.38c0,0-18.37-4.36-39.48-5.98c-0.82-2.89-3.22-6.58-9.98-7.54l4.14,0.31
		c1.93,0.15,3.76-0.9,4.59-2.64c1.76-3.66,4.2-10.46,3.01-18.32c0,0,2.82,9.08-1.2,17.28c0,0,3.82-5.82,5.2-9.17
		c0.19-0.46-0.04-0.99-0.5-1.18l-0.33-0.14c-0.28-0.12-0.34-0.5-0.09-0.68c1.21-0.92,4.02-3.14,4.52-4.4l-3.81-0.29
		c0,0,5.94-1.36,6.65-6.53c0.71-5.17-1-4.87-1-4.87l2.41-7.15l-0.41,6.79c0,0,5.81-0.06,8.77-11.64C82.28,10.17,64.2,5.9,64.2,5.9
		s-11.75-3.16-9.64,5.57c0,0,1.09,3.1,5.98-0.79c4.89-3.9,7.18,5.69,7.89,6.14s4.54,3.18,4.54,3.18l-4.59-0.84
		c0,0-2.85,0.46-3.07,2.59c0,0,1.63-0.39,2.94,1.42c0,0-11.62-3.52-12.48,4.06c0,0,4.37-0.68,5.95,2.2c0,0-5.07-1.64-6.59-0.49
		l-2.58-3.16c0,0,1.45-10.52-6.79-10.52c0,0-4.78,0.07-8.18,4.03c-3.4,3.96-9.44,0.81-9.44,0.81s1.79,3.55,9.85,3.44
		c0,0-0.99,2.33-0.38,2.77c0.61,0.44,0.24,2.27,0.24,2.27s-1.09,1.48,0.61,2.31c1.69,0.83,2.25,4.53,2.25,4.53s0.06,2.16,3.65-0.94
		c0,0,2.02-1.48,1.51,0.81c-0.51,2.29-5.82,7.55-5.82,7.55s-0.51-1.46,1.36-4.17c0,0-8.37-2.35-9.92,4.6c0,0-0.43,2.39,1.24,5.27
		c0,0-2.33-0.99-2.71-3.74c0,0-5.43-1.77-4.98,4.82c0,0-11.78-9.25-8.76-11.37c0,0,0.33-0.59,1.18-0.76
		c1.05-0.22,1.81-1.17,1.61-2.22c-0.24-1.31-1.11-2.78-3.68-3.25c-4.99-0.91-3.74,8.57-3.74,8.57s1,12.64,8.83,18.87
		c7.83,6.23,21.52-6.83,21.52-6.83s-4.03,5.58,1.39,5.19c5.42-0.38,7.67-4.6,7.67-4.6s-0.7,5.92-7.31,6.08c0,0-3.53,0.2-4.01-2
		c0,0-3.8,1.59-1.97,7.31c0.74,2.29,0.6,4.73-0.31,6.81C26.06,71.81,15.27,73.62,7.45,77.91z"/>
	<text transform="matrix(1 0 0 1 15.5633 86.9137)" class="st0 st1 st2">Multi Fitness Center</text>
	<text transform="matrix(1 0 0 1 15.951 94.6627)" class="st0 st1 st3 st4">Build your power</text>
</g>
</svg>
