<?xml version="1.0" encoding="utf-8"?>
<!-- Generator: Adobe Illustrator 25.1.0, SVG Export Plug-In . SVG Version: 6.00 Build 0)  -->
<svg version="1.1" id="Layer_1" xmlns="http://www.w3.org/2000/svg" xmlns:xlink="http://www.w3.org/1999/xlink" x="0px" y="0px"
	 viewBox="0 0 150.36 150.08" style="enable-background:new 0 0 150.36 150.08;" xml:space="preserve">
<style type="text/css">
	.st0{fill:#010101;}
	.st1{font-family:'NexaBold';}
	.st2{font-size:11.9721px;}
	.st3{font-size:9.0599px;}
	.st4{letter-spacing:2;}
</style>
<g>
	<path id="XMLID_3252_" class="st0" d="M7.96,118.17H145.8c0,0-28.32-6.72-60.88-9.22c-1.27-4.46-4.96-10.14-15.4-11.63l6.39,0.48
		c2.98,0.23,5.79-1.38,7.08-4.07c2.71-5.64,6.48-16.13,4.64-28.26c0,0,4.34,14.01-1.85,26.65c0,0,5.89-8.98,8.02-14.13
		c0.29-0.71-0.06-1.53-0.77-1.82l-0.51-0.21c-0.44-0.18-0.52-0.77-0.14-1.06c1.87-1.42,6.2-4.84,6.96-6.79l-5.87-0.45
		c0,0,9.16-2.1,10.26-10.06c1.1-7.97-1.54-7.52-1.54-7.52l3.72-11.02l-0.64,10.47c0,0,8.96-0.1,13.52-17.95
		c4.56-17.86-23.33-24.46-23.33-24.46S77.35,2.24,80.6,15.7c0,0,1.68,4.79,9.21-1.22c7.54-6.01,11.08,8.78,12.16,9.47
		c1.08,0.69,7,4.9,7,4.9l-7.08-1.3c0,0-4.4,0.71-4.74,3.99c0,0,2.51-0.61,4.54,2.19c0,0-17.91-5.44-19.25,6.26
		c0,0,6.74-1.04,9.18,3.39c0,0-7.82-2.53-10.17-0.75l-3.97-4.88c0,0,2.23-16.22-10.47-16.22c0,0-7.37,0.11-12.61,6.22
		C49.17,33.85,39.85,29,39.85,29s2.76,5.48,15.19,5.3c0,0-1.52,3.6-0.58,4.27c0.94,0.67,0.36,3.5,0.36,3.5s-1.68,2.28,0.94,3.56
		c2.61,1.28,3.47,6.99,3.47,6.99s0.09,3.33,5.63-1.45c0,0,3.12-2.28,2.33,1.25c-0.79,3.53-8.98,11.64-8.98,11.64
		s-0.78-2.24,2.1-6.42c0,0-12.9-3.63-15.3,7.1c0,0-0.66,3.68,1.91,8.13c0,0-3.6-1.52-4.17-5.76c0,0-8.38-2.73-7.68,7.44
		c0,0-18.17-14.26-13.5-17.54c0,0,0.5-0.9,1.82-1.18c1.62-0.34,2.79-1.8,2.49-3.43c-0.37-2.02-1.72-4.28-5.68-5.01
		c-7.7-1.41-5.77,13.21-5.77,13.21s1.55,19.49,13.62,29.09s33.18-10.54,33.18-10.54s-6.22,8.6,2.14,8.01
		c8.36-0.59,11.83-7.09,11.83-7.09s-1.08,9.12-11.27,9.38c0,0-5.44,0.31-6.18-3.08c0,0-5.87,2.45-3.03,11.28
		c1.13,3.53,0.93,7.29-0.48,10.5C36.66,108.77,20.02,111.55,7.96,118.17z"/>
	<text transform="matrix(1 0 0 1 20.4717 132.0557)" class="st0 st1 st2">Multi Fitness Center</text>
	<text transform="matrix(1 0 0 1 21.0698 144.0078)" class="st0 st1 st3 st4">Build your power</text>
</g>
</svg>
